<svg id="SvgjsSvg1000" xmlns="http://www.w3.org/2000/svg" version="1.1" xmlns:xlink="http://www.w3.org/1999/xlink" xmlns:svgjs="http://svgjs.com/svgjs" width="67" height="55"><defs id="SvgjsDefs1001"></defs><path id="SvgjsPath1007" d="M1291 729L1291 728L1292 728L1292 729ZM1285 729L1285 728L1286 728L1286 729ZM1237 729L1237 728L1238 728L1238 729ZM1240 729L1240 728L1241 728L1241 729ZM1243 729L1243 728L1244 728L1244 729ZM1234 729L1234 728L1235 728L1235 729ZM1246 729L1246 728L1247 728L1247 729ZM1231 729L1231 728L1232 728L1232 729ZM1249 729L1249 728L1250 728L1250 729ZM1252 729L1252 728L1253 728L1253 729ZM1255 729L1255 728L1256 728L1256 729ZM1258 729L1258 728L1259 728L1259 729ZM1261 729L1261 728L1262 728L1262 729ZM1264 729L1264 728L1265 728L1265 729ZM1267 729L1267 728L1268 728L1268 729ZM1270 729L1270 728L1271 728L1271 729ZM1273 729L1273 728L1274 728L1274 729ZM1276 729L1276 728L1277 728L1277 729ZM1279 729L1279 728L1280 728L1280 729ZM1282 729L1282 728L1283 728L1283 729ZM1288 729L1288 728L1289 728L1289 729ZM1294 729L1294 728L1295 728L1295 729ZM1297 729L1297 728L1298 728L1298 729ZM1294 726L1294 725L1295 725L1295 726ZM1291 723L1291 722L1292 722L1292 723ZM1288 720L1288 719L1289 719L1289 720ZM1285 717L1285 716L1286 716L1286 717ZM1282 714L1282 713L1283 713L1283 714ZM1279 711L1279 710L1280 710L1280 711ZM1276 708L1276 707L1277 707L1277 708ZM1273 705L1273 704L1274 704L1274 705ZM1270 702L1270 701L1271 701L1271 702ZM1294 732L1294 731L1295 731L1295 732ZM1291 735L1291 734L1292 734L1292 735ZM1288 738L1288 737L1289 737L1289 738ZM1285 741L1285 740L1286 740L1286 741ZM1282 744L1282 743L1283 743L1283 744ZM1279 747L1279 746L1280 746L1280 747ZM1276 750L1276 749L1277 749L1277 750ZM1273 753L1273 752L1274 752L1274 753ZM1270 756L1270 755L1271 755L1271 756Z " fill="#205faa" transform="matrix(1,0,0,1,-1231,-701)"></path></svg>